<?xml version="1.0" encoding="utf-8"?>
<!-- Generator: Adobe Illustrator 24.0.0, SVG Export Plug-In . SVG Version: 6.00 Build 0)  -->
<svg version="1.1" id="Livello_1" xmlns="http://www.w3.org/2000/svg" xmlns:xlink="http://www.w3.org/1999/xlink" x="0px" y="0px"
	 viewBox="0 0 497.9 169" style="enable-background:new 0 0 497.9 169;" xml:space="preserve">
<style type="text/css">
	.st0{fill:#FFFFFF;}
	.st1{fill:url(#SVGID_1_);}
	.st2{fill:url(#SVGID_2_);}
	.st3{fill:url(#SVGID_3_);}
	.st4{fill:url(#SVGID_4_);}
	.st5{fill:url(#SVGID_5_);}
	.st6{fill:url(#SVGID_6_);}
	.st7{fill:url(#SVGID_7_);}
	.st8{fill:url(#SVGID_8_);}
	.st9{fill:url(#SVGID_9_);}
	.st10{fill:url(#SVGID_10_);}
	.st11{fill:url(#SVGID_11_);}
	.st12{fill:url(#SVGID_12_);}
	.st13{fill:url(#SVGID_13_);}
	.st14{fill:url(#SVGID_14_);}
	.st15{fill:url(#SVGID_15_);}
	.st16{fill:url(#SVGID_16_);}
	.st17{fill:url(#SVGID_17_);}
	.st18{fill:url(#SVGID_18_);}
	.st19{fill:url(#SVGID_19_);}
	.st20{fill:url(#SVGID_20_);}
</style>
<g>
	<g>
		<path class="st0" d="M218.3,112.8V71.7l-17.7,31.6h-3.8L179,71.7v41.1h-6.7V59.6h7.1l19.3,34.6L218,59.6h7v53.2H218.3z"/>
		<path class="st0" d="M254,59.6h5.7l21.7,53.2h-7.2l-6.3-15.6h-22.3l-6.2,15.6h-7.2L254,59.6z M266.4,92l-9.6-24.6L246.9,92H266.4z
			"/>
		<linearGradient id="SVGID_1_" gradientUnits="userSpaceOnUse" x1="356.1266" y1="58.496" x2="356.1266" y2="114.084">
			<stop  offset="0" style="stop-color:#1C4061"/>
			<stop  offset="1" style="stop-color:#198EB9"/>
		</linearGradient>
		<path class="st1" d="M352.8,112.8V59.6h6.7v53.2H352.8z"/>
		<linearGradient id="SVGID_2_" gradientUnits="userSpaceOnUse" x1="395.964" y1="58.496" x2="395.964" y2="114.084">
			<stop  offset="0" style="stop-color:#1C4061"/>
			<stop  offset="1" style="stop-color:#198EB9"/>
		</linearGradient>
		<path class="st2" d="M415.6,112.8V71.7l-17.7,31.6h-3.8l-17.8-31.6v41.1h-6.7V59.6h7.1L396,94.2l19.3-34.6h7v53.2H415.6z"/>
		<linearGradient id="SVGID_3_" gradientUnits="userSpaceOnUse" x1="472.4194" y1="58.496" x2="472.4194" y2="114.084">
			<stop  offset="0" style="stop-color:#1C4061"/>
			<stop  offset="1" style="stop-color:#198EB9"/>
		</linearGradient>
		<path class="st3" d="M469.6,59.6h5.7l21.7,53.2h-7.2l-6.3-15.6h-22.3l-6.2,15.6h-7.2L469.6,59.6z M482.1,92l-9.6-24.6L462.6,92
			H482.1z"/>
		<linearGradient id="SVGID_4_" gradientUnits="userSpaceOnUse" x1="436.0593" y1="58.496" x2="436.0593" y2="114.084">
			<stop  offset="0" style="stop-color:#1C4061"/>
			<stop  offset="1" style="stop-color:#198EB9"/>
		</linearGradient>
		<path class="st4" d="M432.7,112.8V59.6h6.7v53.2H432.7z"/>
	</g>
	<g>
		<path class="st0" d="M87.1,19.4c10.6,0.4,20.6,3.4,29.4,8.4c0.1,0.2,0.2,0.4,0.4,0.5l-0.5,0.8c-8.6-5-18.5-8-29-8.5l0.1,0.6
			c10.4,0.5,20.1,3.5,28.6,8.4L108.9,42c-5.5-3.1-11.6-5.3-18.1-6.1l0.3,1.2c6.2,0.9,12.1,2.9,17.3,5.9l-0.6,1
			c-5-2.9-10.6-4.8-16.5-5.7l0.1,0.6c5.8,0.9,11.2,2.8,16,5.6l-6.4,11l1-0.5l5.9-10.2c2,1.2,3.9,2.5,5.7,4l0.6-0.3
			c-1.9-1.5-3.9-3-6-4.2l0.6-1c2.3,1.3,4.4,2.9,6.5,4.6l1.1-0.6c-2.2-1.9-4.5-3.5-7-5l7.2-12.4c9.5,5.6,17.4,13.5,22.9,23L127,60
			c-1.5-2.5-3.1-4.8-5-7l-0.6,1.1c1.7,2,3.2,4.2,4.6,6.5l-1,0.6c-1.2-2.1-2.6-4.1-4.2-6l-0.3,0.6c1.4,1.8,2.8,3.7,3.9,5.7l-9.8,5.6
			l-0.5,1l10.6-6.1c2.8,4.9,4.7,10.4,5.6,16.2l0.6,0.1c-0.8-6-2.8-11.6-5.7-16.6l1-0.6c3,5.3,5,11.2,5.9,17.4l1.2,0.3
			c-0.8-6.6-2.9-12.7-6-18.2l12.5-7.2c4.8,8.5,7.8,18.2,8.3,28.5l0.6,0.1c-0.5-10.5-3.4-20.3-8.3-28.9l0.9-0.5
			c0.1,0.1,0.1,0.1,0.2,0.2c5,8.8,8,18.8,8.4,29.5l1.6,0.3c-0.4-10.8-3.3-20.9-8.2-29.9c0.3-0.3,0.6-0.7,0.6-1.1
			c0-0.8-0.7-1.5-1.5-1.5c-0.2,0-0.4,0-0.5,0.1c-5.6-9.3-13.4-17.1-22.6-22.7c0-0.1,0.1-0.2,0.1-0.4c0-0.8-0.7-1.5-1.5-1.5
			c-0.4,0-0.8,0.2-1,0.4c-9-5-19.2-7.9-30-8.3L87.1,19.4z M117.3,28.5c0.1,0,0.3,0.1,0.5,0.1c0.1,0,0.1,0,0.2,0
			c9.5,5.7,17.4,13.7,22.9,23.2c0,0.1,0,0.2,0.1,0.2l-0.9,0.5c-5.6-9.6-13.6-17.6-23.1-23.2L117.3,28.5z"/>
		<path class="st0" d="M81.7,150.3c-10.6-0.4-20.6-3.4-29.4-8.4c-0.1-0.2-0.2-0.4-0.4-0.5l0.5-0.8c8.6,5,18.5,8,29,8.5l-0.1-0.6
			c-10.4-0.5-20.1-3.5-28.6-8.4l7.2-12.4c5.5,3.1,11.6,5.3,18.1,6.1l-0.3-1.2c-6.2-0.9-12.1-2.9-17.3-5.9l0.6-1
			c5,2.9,10.6,4.8,16.5,5.7l-0.1-0.6c-5.8-0.9-11.2-2.8-16-5.6l6.4-11l-1,0.5l-5.9,10.2c-2-1.2-3.9-2.5-5.7-4l-0.6,0.3
			c1.9,1.5,3.9,3,6,4.2l-0.6,1c-2.3-1.3-4.4-2.9-6.5-4.6l-1.1,0.6c2.2,1.9,4.5,3.5,7,5l-7.2,12.4c-9.5-5.6-17.4-13.5-22.9-23
			l12.5-7.2c1.5,2.5,3.1,4.8,5,7l0.6-1.1c-1.7-2-3.2-4.2-4.6-6.5l1-0.6c1.2,2.1,2.6,4.1,4.2,6l0.3-0.6c-1.4-1.8-2.8-3.7-3.9-5.7
			l9.8-5.6l0.5-1l-10.6,6.1c-2.8-4.9-4.7-10.4-5.6-16.2l-0.6-0.1c0.8,6,2.8,11.6,5.7,16.6l-1,0.6c-3-5.3-5-11.2-5.9-17.4l-1.2-0.3
			c0.8,6.6,2.9,12.7,6,18.2L29,116.3c-4.8-8.5-7.8-18.2-8.3-28.5l-0.6-0.1c0.5,10.5,3.4,20.3,8.3,28.9l-0.9,0.5
			c-0.1-0.1-0.1-0.1-0.2-0.2c-5-8.8-8-18.8-8.4-29.5l-1.6-0.3c0.4,10.8,3.3,20.9,8.2,29.9c-0.3,0.3-0.6,0.7-0.6,1.1
			c0,0.8,0.7,1.5,1.5,1.5c0.2,0,0.4,0,0.5-0.1c5.6,9.3,13.4,17.1,22.6,22.7c0,0.1-0.1,0.2-0.1,0.4c0,0.8,0.7,1.5,1.5,1.5
			c0.4,0,0.8-0.2,1-0.4c9,5,19.2,7.9,30,8.3L81.7,150.3z M51.4,141.1c-0.1,0-0.3-0.1-0.5-0.1c-0.1,0-0.1,0-0.2,0
			c-9.5-5.7-17.4-13.7-22.9-23.2c0-0.1,0-0.2-0.1-0.2l0.9-0.5c5.6,9.6,13.6,17.6,23.1,23.2L51.4,141.1z"/>
		<path class="st0" d="M25.5,52.7c-4.9,8.9-7.8,19-8.2,29.7l1.6-0.4c0.4-10.6,3.4-20.6,8.4-29.4c0.1-0.1,0.1-0.1,0.2-0.2l0.9,0.5
			c-4.9,8.6-7.9,18.3-8.3,28.8l0.6-0.1c0.5-10.3,3.4-19.9,8.2-28.3l12.5,7.2c-3.1,5.4-5.2,11.5-6,17.9l1.2-0.3
			c0.9-6.1,2.9-11.9,5.8-17.1l1,0.6c-2.8,4.9-4.7,10.5-5.6,16.3l0.6-0.1c0.9-5.7,2.8-11,5.5-15.9l11.2,6.4l-0.5-1l-10.4-6
			c1.2-2.1,2.6-4,4.1-5.9L48,55c-1.6,1.9-3,4-4.3,6.1l-1-0.6c1.4-2.3,3-4.6,4.7-6.6l-0.6-1.1c-1.9,2.2-3.6,4.6-5.1,7.2l-12.5-7.2
			c5.5-9.5,13.4-17.4,22.9-23l7.2,12.4c-2.4,1.4-4.7,3.1-6.8,4.9l1.1,0.6c2-1.6,4.1-3.1,6.3-4.5l0.6,1c-2,1.2-4,2.6-5.8,4.1l0.6,0.3
			c1.7-1.4,3.6-2.7,5.5-3.8l5.6,9.6l1,0.5l-6-10.4c5-2.8,10.5-4.8,16.4-5.7l0.1-0.6C71.8,39,66.1,41,61,43.9l-0.6-1
			c5.3-3,11.3-5.1,17.6-6l0.3-1.2c-6.6,0.8-12.9,3-18.4,6.1l-7.2-12.4c8.5-4.9,18.3-7.9,28.7-8.4l0.1-0.6C71,21,61,24.1,52.4,29
			l-0.5-0.8c0.2-0.1,0.3-0.3,0.4-0.5c8.8-5,18.8-7.9,29.5-8.4l0.3-1.6C71.2,18.1,61,21.1,52,26.1c-0.3-0.3-0.6-0.4-1-0.4
			c-0.8,0-1.5,0.7-1.5,1.5c0,0.1,0,0.2,0.1,0.4c-9.2,5.6-17,13.4-22.6,22.7c-0.2-0.1-0.3-0.1-0.5-0.1c-0.8,0-1.5,0.7-1.5,1.5
			C24.9,52,25.1,52.4,25.5,52.7z M27.8,51.8c5.6-9.5,13.5-17.5,22.9-23.2c0.1,0,0.1,0,0.2,0c0.2,0,0.3,0,0.5-0.1l0.5,0.8
			C42.3,35,34.3,43,28.7,52.6L27.8,52C27.8,51.9,27.8,51.9,27.8,51.8z"/>
		<path class="st0" d="M143.3,116.9c4.9-8.9,7.8-19,8.2-29.7l-1.6,0.4c-0.4,10.6-3.4,20.6-8.4,29.4c-0.1,0.1-0.1,0.1-0.2,0.2
			l-0.9-0.5c4.9-8.6,7.9-18.3,8.3-28.8l-0.6,0.1c-0.5,10.3-3.4,19.9-8.2,28.3l-12.5-7.2c3.1-5.4,5.2-11.5,6-17.9l-1.2,0.3
			c-0.9,6.1-2.9,11.9-5.8,17.1l-1-0.6c2.8-4.9,4.7-10.5,5.6-16.3l-0.6,0.1c-0.9,5.7-2.8,11-5.5,15.9l-11.2-6.4l0.5,1l10.4,6
			c-1.2,2.1-2.6,4-4.1,5.9l0.3,0.6c1.6-1.9,3-4,4.3-6.1l1,0.6c-1.4,2.3-3,4.6-4.7,6.6l0.6,1.1c1.9-2.2,3.6-4.6,5.1-7.2l12.5,7.2
			c-5.5,9.5-13.4,17.5-22.9,23l-7.2-12.4c2.4-1.4,4.7-3.1,6.8-4.9l-1.1-0.6c-2,1.6-4.1,3.1-6.3,4.5l-0.6-1c2-1.2,4-2.6,5.8-4.1
			l-0.6-0.3c-1.7,1.4-3.6,2.7-5.5,3.8l-5.6-9.6l-1-0.5l6,10.4c-5,2.8-10.5,4.8-16.4,5.7l-0.1,0.6c6-0.8,11.7-2.8,16.8-5.8l0.6,1
			c-5.3,3-11.3,5.1-17.6,6l-0.3,1.2c6.6-0.8,12.9-3,18.4-6.1l7.2,12.4c-8.5,4.9-18.3,7.9-28.7,8.4l-0.1,0.6
			c10.6-0.5,20.5-3.5,29.1-8.5l0.5,0.8c-0.2,0.1-0.3,0.3-0.4,0.5c-8.8,5-18.8,7.9-29.5,8.4l-0.3,1.6c10.9-0.4,21.1-3.3,30.1-8.3
			c0.3,0.3,0.6,0.4,1,0.4c0.8,0,1.5-0.7,1.5-1.5c0-0.1,0-0.2-0.1-0.4c9.2-5.6,17-13.4,22.6-22.7c0.2,0.1,0.3,0.1,0.5,0.1
			c0.8,0,1.5-0.7,1.5-1.5C143.8,117.6,143.6,117.2,143.3,116.9z M140.9,117.9c-5.6,9.5-13.5,17.5-22.9,23.2c-0.1,0-0.1,0-0.2,0
			c-0.2,0-0.3,0-0.5,0.1l-0.5-0.8c9.6-5.6,17.6-13.6,23.1-23.2l0.9,0.5C140.9,117.7,140.9,117.8,140.9,117.9z"/>
	</g>
	<linearGradient id="SVGID_5_" gradientUnits="userSpaceOnUse" x1="84.5069" y1="40.3644" x2="84.5069" y2="131.0581">
		<stop  offset="0" style="stop-color:#1C4061"/>
		<stop  offset="1" style="stop-color:#198EB9"/>
	</linearGradient>
	<path class="st5" d="M84.5,108.6c-13.1,0-23.7-10.6-23.7-23.7s10.6-23.7,23.7-23.7s23.7,10.6,23.7,23.7S97.6,108.6,84.5,108.6z
		 M84.5,62.4C72.1,62.4,62,72.5,62,84.9s10.1,22.5,22.5,22.5s22.5-10.1,22.5-22.5S96.9,62.4,84.5,62.4z"/>
	<linearGradient id="SVGID_6_" gradientUnits="userSpaceOnUse" x1="84.5069" y1="40.3644" x2="84.5069" y2="131.0581">
		<stop  offset="0" style="stop-color:#1C4061"/>
		<stop  offset="1" style="stop-color:#198EB9"/>
	</linearGradient>
	<path class="st6" d="M84.5,101.2c-9,0-16.3-7.3-16.3-16.3c0-9,7.3-16.3,16.3-16.3s16.3,7.3,16.3,16.3
		C100.8,93.9,93.5,101.2,84.5,101.2z M84.5,69.4C76,69.4,69,76.4,69,84.9s6.9,15.5,15.5,15.5S100,93.4,100,84.9S93,69.4,84.5,69.4z"
		/>
	<linearGradient id="SVGID_7_" gradientUnits="userSpaceOnUse" x1="66.0635" y1="40.3644" x2="66.0635" y2="131.0581">
		<stop  offset="0" style="stop-color:#1C4061"/>
		<stop  offset="1" style="stop-color:#198EB9"/>
	</linearGradient>
	<polygon class="st7" points="68.6,84.9 63.4,84.9 68.7,82.3 	"/>
	<linearGradient id="SVGID_8_" gradientUnits="userSpaceOnUse" x1="66.0635" y1="40.3644" x2="66.0635" y2="131.0581">
		<stop  offset="0" style="stop-color:#1C4061"/>
		<stop  offset="1" style="stop-color:#198EB9"/>
	</linearGradient>
	<polygon class="st8" points="68.6,84.9 63.4,84.9 68.7,87.5 	"/>
	<linearGradient id="SVGID_9_" gradientUnits="userSpaceOnUse" x1="102.9505" y1="40.3644" x2="102.9505" y2="131.0581">
		<stop  offset="0" style="stop-color:#1C4061"/>
		<stop  offset="1" style="stop-color:#198EB9"/>
	</linearGradient>
	<polygon class="st9" points="100.4,84.9 105.6,84.9 100.3,82.3 	"/>
	<linearGradient id="SVGID_10_" gradientUnits="userSpaceOnUse" x1="102.9505" y1="40.3644" x2="102.9505" y2="131.0581">
		<stop  offset="0" style="stop-color:#1C4061"/>
		<stop  offset="1" style="stop-color:#198EB9"/>
	</linearGradient>
	<polygon class="st10" points="100.4,84.9 105.6,84.9 100.3,87.5 	"/>
	<linearGradient id="SVGID_11_" gradientUnits="userSpaceOnUse" x1="85.8123" y1="40.3644" x2="85.8123" y2="131.0581">
		<stop  offset="0" style="stop-color:#1C4061"/>
		<stop  offset="1" style="stop-color:#198EB9"/>
	</linearGradient>
	<polygon class="st11" points="84.5,69 84.5,63.8 87.1,69.1 	"/>
	<linearGradient id="SVGID_12_" gradientUnits="userSpaceOnUse" x1="83.2017" y1="40.3644" x2="83.2017" y2="131.0581">
		<stop  offset="0" style="stop-color:#1C4061"/>
		<stop  offset="1" style="stop-color:#198EB9"/>
	</linearGradient>
	<polygon class="st12" points="84.5,69 84.5,63.8 81.9,69.1 	"/>
	<linearGradient id="SVGID_13_" gradientUnits="userSpaceOnUse" x1="85.8123" y1="40.3644" x2="85.8123" y2="131.0581">
		<stop  offset="0" style="stop-color:#1C4061"/>
		<stop  offset="1" style="stop-color:#198EB9"/>
	</linearGradient>
	<polygon class="st13" points="84.5,100.8 84.5,106 87.1,100.7 	"/>
	<linearGradient id="SVGID_14_" gradientUnits="userSpaceOnUse" x1="83.2017" y1="40.3644" x2="83.2017" y2="131.0581">
		<stop  offset="0" style="stop-color:#1C4061"/>
		<stop  offset="1" style="stop-color:#198EB9"/>
	</linearGradient>
	<polygon class="st14" points="84.5,100.8 84.5,106 81.9,100.7 	"/>
	<linearGradient id="SVGID_15_" gradientUnits="userSpaceOnUse" x1="84.394" y1="40.3644" x2="84.394" y2="131.0581">
		<stop  offset="0" style="stop-color:#1C4061"/>
		<stop  offset="1" style="stop-color:#198EB9"/>
	</linearGradient>
	<rect x="84.2" y="11.3" class="st15" width="0.4" height="50.5"/>
	<linearGradient id="SVGID_16_" gradientUnits="userSpaceOnUse" x1="84.3546" y1="40.3644" x2="84.3546" y2="131.0581">
		<stop  offset="0" style="stop-color:#1C4061"/>
		<stop  offset="1" style="stop-color:#198EB9"/>
	</linearGradient>
	<rect x="84.1" y="107.9" class="st16" width="0.4" height="50.5"/>
	<linearGradient id="SVGID_17_" gradientUnits="userSpaceOnUse" x1="132.6853" y1="40.3644" x2="132.6853" y2="131.0581">
		<stop  offset="0" style="stop-color:#1C4061"/>
		<stop  offset="1" style="stop-color:#198EB9"/>
	</linearGradient>
	<rect x="107.4" y="84.6" class="st17" width="50.5" height="0.4"/>
	<linearGradient id="SVGID_18_" gradientUnits="userSpaceOnUse" x1="36.0635" y1="40.3644" x2="36.0635" y2="131.0581">
		<stop  offset="0" style="stop-color:#1C4061"/>
		<stop  offset="1" style="stop-color:#198EB9"/>
	</linearGradient>
	<rect x="10.8" y="84.6" class="st18" width="50.5" height="0.4"/>
	<linearGradient id="SVGID_19_" gradientUnits="userSpaceOnUse" x1="315.6774" y1="64.365" x2="315.6774" y2="105.2672">
		<stop  offset="0" style="stop-color:#1C4061"/>
		<stop  offset="1" style="stop-color:#198EB9"/>
	</linearGradient>
	<path class="st19" d="M334.2,89l5.8-2.8l-5.8-2.8c-1.2-8.1-7.6-14.5-15.7-15.7l-2.8-5.8l-2.8,5.8c-8.1,1.2-14.5,7.6-15.7,15.7
		l-5.8,2.8l5.8,2.8c1.2,8.1,7.6,14.5,15.7,15.7l2.8,5.8l2.8-5.8C326.6,103.5,333,97.1,334.2,89z M315.7,104c-9.8,0-17.8-8-17.8-17.8
		c0-9.8,8-17.8,17.8-17.8c9.8,0,17.8,8,17.8,17.8C333.5,96,325.5,104,315.7,104z"/>
	<g>
		<path class="st0" d="M306.3,72.7c-8.8-4.7-12.7-9.2-12.7-9.2l1.1-0.8l-9.4-7.1l7.1,9.4l0.8-1.1c0,0,4.5,4,9.2,12.7
			s8.1,9.2,10.7,9.2h2.5v-2.5C315.5,80.8,315.1,77.4,306.3,72.7z"/>
		<path class="st0" d="M324.7,72.7c8.8-4.7,12.7-9.2,12.7-9.2l-1.1-0.8l9.4-7.1l-7.1,9.4l-0.8-1.1c0,0-4.5,4-9.2,12.7
			c-4.7,8.8-8.1,9.2-10.7,9.2h-2.5v-2.5C315.5,80.8,316,77.4,324.7,72.7z"/>
		<g>
			<path class="st0" d="M324.7,99c8.8,4.7,12.7,9.2,12.7,9.2l-1.1,0.8l9.4,7.1l-7.1-9.4l-0.8,1.1c0,0-4.5-4-9.2-12.7
				c-4.7-8.8-8.1-9.2-10.7-9.2h-2.5v2.5C315.5,91,316,94.3,324.7,99z"/>
			<path class="st0" d="M306.3,99c-8.8,4.7-12.7,9.2-12.7,9.2l1.1,0.8l-9.4,7.1l7.1-9.4l0.8,1.1c0,0,4.5-4,9.2-12.7
				s8.1-9.2,10.7-9.2h2.5v2.5C315.5,91,315.1,94.3,306.3,99z"/>
		</g>
	</g>
	<g>
		<path class="st0" d="M76.4,73.2c-7.6-4.1-11-8-11-8l0.9-0.7l-8.2-6.1l6.1,8.2l0.7-0.9c0,0,3.9,3.4,8,11c4.1,7.6,7,8,9.3,8h2.2
			v-2.2C84.4,80.2,84,77.4,76.4,73.2z"/>
		<path class="st0" d="M92.4,73.2c7.6-4.1,11-8,11-8l-0.9-0.7l8.2-6.1l-6.1,8.2l-0.7-0.9c0,0-3.9,3.4-8,11c-4.1,7.6-7,8-9.3,8h-2.2
			v-2.2C84.4,80.2,84.7,77.4,92.4,73.2z"/>
		<g>
			<path class="st0" d="M92.4,96.1c7.6,4.1,11,8,11,8l-0.9,0.7l8.2,6.1l-6.1-8.2l-0.7,0.9c0,0-3.9-3.4-8-11c-4.1-7.6-7-8-9.3-8h-2.2
				v2.2C84.4,89.1,84.7,92,92.4,96.1z"/>
			<path class="st0" d="M76.4,96.1c-7.6,4.1-11,8-11,8l0.9,0.7l-8.2,6.1l6.1-8.2l0.7,0.9c0,0,3.9-3.4,8-11c4.1-7.6,7-8,9.3-8h2.2
				v2.2C84.4,89.1,84,92,76.4,96.1z"/>
		</g>
	</g>
	<linearGradient id="SVGID_20_" gradientUnits="userSpaceOnUse" x1="84.3745" y1="37.6488" x2="84.3745" y2="133.8818">
		<stop  offset="0" style="stop-color:#1C4061"/>
		<stop  offset="1" style="stop-color:#198EB9"/>
	</linearGradient>
	<path class="st20" d="M166.9,84.8l-54.3-11.4l18.1-34.9L96.4,56.8l-12-54.5L72.9,56.6L38,38.5l18.4,34.3l-54.5,12l54.3,11.4
		l-18.1,34.9l34.3-18.4l12,54.5L95.8,113l34.9,18.1l-18.4-34.3L166.9,84.8z M74.4,108.5l-29.5,15.8l15.6-30l-44.9-9.5l45.2-9.9
		L45,45.4l30,15.6L84.4,16l9.9,45.2l29.5-15.8l-15.6,30l44.9,9.5L108,94.8l15.8,29.5l-30-15.6l-9.5,44.9L74.4,108.5z"/>
</g>
</svg>
